<?xml version="1.0" encoding="UTF-8"?>
<svg width="1024px" height="1024px" viewBox="0 0 1024 1024" version="1.1" xmlns="http://www.w3.org/2000/svg" xmlns:xlink="http://www.w3.org/1999/xlink" xmlns:sketch="http://www.bohemiancoding.com/sketch/ns">
    <!-- Generator: Sketch 3.4.2 (15855) - http://www.bohemiancoding.com/sketch -->
    <title>Nu</title>
    <desc>Created with Sketch.</desc>
    <defs></defs>
    <g id="Page-1" stroke="none" stroke-width="1" fill="none" fill-rule="evenodd" sketch:type="MSPage">
        <g id="Nu" sketch:type="MSLayerGroup">
            <path d="M515.710145,986.898551 C255.479974,986.898551 44.5217391,775.940316 44.5217391,515.710145 C44.5217391,255.479974 255.479974,44.5217391 515.710145,44.5217391 C775.940316,44.5217391 986.898551,255.479974 986.898551,515.710145 C986.898551,775.940316 775.940316,986.898551 515.710145,986.898551 L515.710145,986.898551 Z" id="Path-Copy" fill="#FFFFFF" sketch:type="MSShapeGroup"></path>
            <path d="M512,1024 C794.769792,1024 1024,794.769792 1024,512 C1024,229.230208 794.769792,0 512,0 C229.230208,0 0,229.230208 0,512 C0,794.769792 229.230208,1024 512,1024 L512,1024 Z M512,949.797101 C270.211337,949.797101 74.2028986,753.788663 74.2028986,512 C74.2028986,270.211337 270.211337,74.2028986 512,74.2028986 C753.788663,74.2028986 949.797101,270.211337 949.797101,512 C949.797101,753.788663 753.788663,949.797101 512,949.797101 L512,949.797101 Z" id="Shape" fill="#000000" sketch:type="MSShapeGroup"></path>
            <path d="M263.42029,357.73913 C277.978334,344.914187 290.803085,333.995818 301.894928,324.983696 C312.98677,315.971573 322.691987,308.346046 331.01087,302.106884 C339.329752,295.867722 346.695318,290.92846 353.10779,287.288949 C359.520262,283.649438 365.499368,280.876519 371.04529,278.970109 C376.591211,277.063698 381.963742,275.850546 387.163043,275.330616 C392.362345,274.810686 397.908183,274.550725 403.800725,274.550725 C440.195834,274.550725 465.152106,293.267929 478.67029,330.702899 C482.136491,340.754881 485.689293,356.005936 489.328804,376.456522 C492.968315,396.907107 496.261157,420.043651 499.207428,445.866848 C502.153698,471.690045 504.493349,498.899314 506.226449,527.495471 C507.95955,556.091628 508.826087,583.387551 508.826087,609.384058 C508.826087,636.420425 507.786242,660.336853 505.706522,681.134058 C530.663168,645.432189 552.846521,611.290622 572.257246,578.708333 C591.667971,546.126045 608.045525,516.577125 621.390399,490.060688 C634.735272,463.544251 644.873758,440.667669 651.806159,421.430254 C658.738561,402.192839 662.20471,388.068282 662.20471,379.056159 C662.20471,360.338675 652.672801,346.127464 633.608696,336.422101 L660.125,305.746377 C669.830363,294.654534 679.188965,286.682391 688.201087,281.82971 C697.213209,276.977029 707.091734,274.550725 717.836957,274.550725 C733.781481,274.550725 746.086309,279.143372 754.751812,288.328804 C763.417314,297.514237 767.75,310.425641 767.75,327.063406 C767.75,336.422148 763.937236,350.720013 756.311594,369.957428 C748.685952,389.194843 738.287505,411.464849 725.115942,436.768116 C711.944379,462.071383 696.520016,489.627266 678.842391,519.436594 C661.164767,549.245922 642.534216,579.401418 622.950181,609.903986 C603.366146,640.406553 583.262482,670.388742 562.638587,699.851449 C542.014692,729.314157 521.997682,756.523426 502.586957,781.480072 L392.882246,801.757246 C394.615347,780.266801 395.915153,757.130257 396.781703,732.34692 C397.648253,707.563584 398.081522,682.174043 398.081522,656.177536 C398.081522,631.91413 397.648253,607.824395 396.781703,583.907609 C395.915153,559.990822 394.528693,537.027586 392.622283,515.01721 C390.715872,493.006834 388.289568,472.556556 385.343297,453.665761 C382.397026,434.774966 378.75757,418.397412 374.424819,404.532609 C370.092068,390.667805 365.152806,379.749436 359.606884,371.777174 C354.060963,363.804912 347.821895,359.818841 340.889493,359.818841 C335.343571,359.818841 327.284775,363.025028 316.712862,369.4375 C306.14095,375.849972 294.26939,385.12192 281.097826,397.253623 L263.42029,357.73913 Z" id="ν" fill="#D0011B" sketch:type="MSShapeGroup"></path>
        </g>
    </g>
</svg>